<svg id="Capa_1" data-name="Capa 1" xmlns="http://www.w3.org/2000/svg" viewBox="0 0 318.24 118.55"><defs><style>.cls-1{fill:#61c1cf;}.cls-2{fill:#0069b4;}.cls-3{fill:#5ec2d2;}</style></defs><path class="cls-1" d="M168.71,23.75v6.06h8.1v5.68h-8.1V47.56h-6.83V18h15.87v5.8Z" transform="translate(-6.19 -5.73)"/><path class="cls-1" d="M189.69,48.05c-6.95,0-10.38-2.58-10.38-7.28,0-5.85,6-7.2,12.63-7.57v-.86c0-1.76-1.22-2.57-3.51-2.57a18.12,18.12,0,0,0-6.26,1.35l-1.64-4.5a25.25,25.25,0,0,1,8.71-1.6c6,0,9,2.29,9,8.14V46.45A21.28,21.28,0,0,1,189.69,48.05Zm2.25-10.64c-3.64.17-6.38.58-6.38,3.19,0,1.8,1.52,2.79,3.93,2.79a9,9,0,0,0,2.45-.33Z" transform="translate(-6.19 -5.73)"/><path class="cls-1" d="M214.24,30.75a7.52,7.52,0,0,0-2.5-.41,6.28,6.28,0,0,0-2.29.37V47.56H202.7V26.62a27,27,0,0,1,9.57-1.6,19.59,19.59,0,0,1,3.19.25Z" transform="translate(-6.19 -5.73)"/><path class="cls-1" d="M243,47.56V33.16c0-1.8-1.1-2.86-3-2.86a4.18,4.18,0,0,0-2.49.73V47.56h-6.75V33c0-1.68-1.15-2.74-3.15-2.74a6,6,0,0,0-2.37.45V47.56h-6.75V26.62a24.29,24.29,0,0,1,8.67-1.6c3.64,0,5.77,1,7.12,2.05A13.81,13.81,0,0,1,241.76,25c5,0,8,2.82,8,7.36V47.56Z" transform="translate(-6.19 -5.73)"/><path class="cls-1" d="M263.57,48.05c-7,0-10.39-2.58-10.39-7.28,0-5.85,6-7.2,12.64-7.57v-.86c0-1.76-1.23-2.57-3.52-2.57A18.17,18.17,0,0,0,256,31.12l-1.63-4.5a25.15,25.15,0,0,1,8.71-1.6c6,0,9,2.29,9,8.14V46.45A21.36,21.36,0,0,1,263.57,48.05Zm2.25-10.64c-3.64.17-6.38.58-6.38,3.19,0,1.8,1.51,2.79,3.92,2.79a9,9,0,0,0,2.46-.33Z" transform="translate(-6.19 -5.73)"/><path class="cls-1" d="M285.94,48.05c-5.4,0-10.1-3.81-10.1-11.54S280.54,25,285.94,25A10.44,10.44,0,0,1,292,26.54l-2.08,4.78a4.9,4.9,0,0,0-2.9-.82c-2.54,0-4.18,2.21-4.18,5.93s1.8,6,4.18,6a4.9,4.9,0,0,0,2.9-.81L292,46.53A10.15,10.15,0,0,1,285.94,48.05Z" transform="translate(-6.19 -5.73)"/><path class="cls-1" d="M298.58,22.49A3.62,3.62,0,0,1,294.86,19a3.75,3.75,0,0,1,7.48,0A3.65,3.65,0,0,1,298.58,22.49Zm-3.35,25.07v-22H302V47.56Z" transform="translate(-6.19 -5.73)"/><path class="cls-1" d="M315.84,48.05c-6.95,0-10.39-2.58-10.39-7.28,0-5.85,6-7.2,12.64-7.57v-.86c0-1.76-1.23-2.57-3.52-2.57a18.11,18.11,0,0,0-6.25,1.35l-1.64-4.5a25.2,25.2,0,0,1,8.71-1.6c6,0,9,2.29,9,8.14V46.45A21.32,21.32,0,0,1,315.84,48.05Zm2.25-10.64c-3.64.17-6.38.58-6.38,3.19,0,1.8,1.52,2.79,3.93,2.79a9,9,0,0,0,2.45-.33Z" transform="translate(-6.19 -5.73)"/><path class="cls-2" d="M174.73,112.19A36.47,36.47,0,0,1,161.88,110V72.41a36.52,36.52,0,0,1,12.85-2.19c10.89,0,15.66,4.77,15.66,11.33a9.13,9.13,0,0,1-6.06,8.76v.11a10.62,10.62,0,0,1,7,9.93C191.29,107.76,185.79,112.19,174.73,112.19Zm0-34.9a13.52,13.52,0,0,0-3.76.5v9.88h4.49a6.57,6.57,0,0,0,4.37-1.18,5,5,0,0,0,1.58-3.93C181.36,79.31,179.5,77.29,174.68,77.29ZM180,95.53a7.37,7.37,0,0,0-4.55-1.18h-4.54v10.27a14.61,14.61,0,0,0,3.81.5c4.94,0,7.13-1.68,7.13-5.44A4.94,4.94,0,0,0,180,95.53Z" transform="translate(-6.19 -5.73)"/><path class="cls-2" d="M209.25,112.19c-9.54,0-14.25-3.53-14.25-10,0-8,8.19-9.88,17.34-10.39V90.64c0-2.41-1.68-3.53-4.83-3.53A25,25,0,0,0,198.93,89l-2.25-6.17a34.64,34.64,0,0,1,12-2.19c8.25,0,12.4,3.14,12.4,11.17V110C218.74,111.18,214.08,112.19,209.25,112.19Zm3.09-14.59c-5,.23-8.75.79-8.75,4.38,0,2.47,2.07,3.82,5.38,3.82a12.37,12.37,0,0,0,3.37-.45Z" transform="translate(-6.19 -5.73)"/><path class="cls-2" d="M242.93,88.46a10.32,10.32,0,0,0-3.42-.57,8.78,8.78,0,0,0-3.15.51v23.12H227.1V82.79a37,37,0,0,1,13.14-2.19,28.2,28.2,0,0,1,4.38.34Z" transform="translate(-6.19 -5.73)"/><path class="cls-2" d="M260.84,112.19c-9.54,0-14.26-3.53-14.26-10,0-8,8.2-9.88,17.34-10.39V90.64c0-2.41-1.68-3.53-4.82-3.53A25,25,0,0,0,250.51,89l-2.24-6.17a34.53,34.53,0,0,1,12-2.19c8.25,0,12.4,3.14,12.4,11.17V110C270.32,111.18,265.66,112.19,260.84,112.19Zm3.08-14.59c-5,.23-8.75.79-8.75,4.38,0,2.47,2.07,3.82,5.39,3.82a12.23,12.23,0,0,0,3.36-.45Z" transform="translate(-6.19 -5.73)"/><path class="cls-2" d="M289.13,112c-6.29,0-8.92-3.43-8.92-10.22V88.17h-3.6v-6.9h3.6V74.82l9-2.53v9h5.28v6.9h-5.28v13c0,2.08,1.23,2.75,3,2.75a5.63,5.63,0,0,0,2.31-.51V111A14,14,0,0,1,289.13,112Z" transform="translate(-6.19 -5.73)"/><path class="cls-2" d="M312.65,112.19c-9.55,0-14.26-3.53-14.26-10,0-8,8.19-9.88,17.34-10.39V90.64c0-2.41-1.68-3.53-4.82-3.53A25,25,0,0,0,302.32,89l-2.25-6.17a34.64,34.64,0,0,1,12-2.19c8.25,0,12.4,3.14,12.4,11.17V110C322.13,111.18,317.47,112.19,312.65,112.19Zm3.08-14.59c-5,.23-8.75.79-8.75,4.38,0,2.47,2.07,3.82,5.38,3.82a12.25,12.25,0,0,0,3.37-.45Z" transform="translate(-6.19 -5.73)"/><path class="cls-2" d="M77.8,48.05H63.05V41.53a21.06,21.06,0,0,0-42.11,0v6.52H6.19V41.53a35.81,35.81,0,0,1,71.61,0Z" transform="translate(-6.19 -5.73)"/><path class="cls-2" d="M134.66,48.05H119.91V41.53a21.06,21.06,0,0,0-42.11,0v6.52H63.05V41.53a35.81,35.81,0,0,1,71.61,0Z" transform="translate(-6.19 -5.73)"/><path class="cls-3" d="M70.44,124.27,67,122.46c-6.22-3.29-60.77-33.1-60.77-67.93H21c0,20.49,33,43.57,49.46,53,16.47-9.4,49.47-32.49,49.47-53h14.75c0,34.83-54.55,64.64-60.77,67.93Z" transform="translate(-6.19 -5.73)"/></svg>