<svg width="46" height="46" viewBox="0 0 46 46" fill="none" xmlns="http://www.w3.org/2000/svg">
<path d="M9 36C8.43333 36 7.958 35.808 7.574 35.424C7.19133 35.0413 7 34.5667 7 34C7 33.4333 7.19133 32.9587 7.574 32.576C7.958 32.192 8.43333 32 9 32H11V20C11 17.2333 11.8333 14.7747 13.5 12.624C15.1667 10.4747 17.3333 9.06667 20 8.4V7C20 6.16667 20.292 5.45867 20.876 4.876C21.4587 4.292 22.1667 4 23 4C23.8333 4 24.5413 4.292 25.124 4.876C25.708 5.45867 26 6.16667 26 7V8.4C28.6667 9.06667 30.8333 10.4747 32.5 12.624C34.1667 14.7747 35 17.2333 35 20V32H37C37.5667 32 38.0413 32.192 38.424 32.576C38.808 32.9587 39 33.4333 39 34C39 34.5667 38.808 35.0413 38.424 35.424C38.0413 35.808 37.5667 36 37 36H9ZM23 42C21.9 42 20.9587 41.6087 20.176 40.826C19.392 40.042 19 39.1 19 38H27C27 39.1 26.6087 40.042 25.826 40.826C25.042 41.6087 24.1 42 23 42Z" fill="#016AA6"/>
</svg>
