<svg width="46" height="46" viewBox="0 0 46 46" fill="none" xmlns="http://www.w3.org/2000/svg">
<path d="M23.2722 40.7197L22.2158 40.1716C20.3057 39.1753 3.55371 30.1479 3.55371 19.6003H8.08948C8.08948 25.8053 18.2236 32.7947 23.2783 35.6504C28.3361 32.8038 38.4702 25.8114 38.4702 19.6003H42.9999C42.9999 30.1479 26.2479 39.1753 24.3378 40.1716L23.2722 40.7197Z" fill="#016AA6"/>
<path d="M42.9939 17.6379H38.4643V15.6634C38.4274 13.9964 37.73 12.41 36.5215 11.2439C35.3129 10.0777 33.6893 9.42475 31.9984 9.42475C30.3076 9.42475 28.6839 10.0777 27.4754 11.2439C26.2668 12.41 25.5694 13.9964 25.5326 15.6634V17.6379H21.0029V15.6634C21.0511 12.8191 22.2308 10.1073 24.2876 8.11269C26.3444 6.11804 29.1137 5.00024 31.9984 5.00024C34.8832 5.00024 37.6524 6.11804 39.7092 8.11269C41.766 10.1073 42.9457 12.8191 42.9939 15.6634V17.6379Z" fill="#016AA6"/>
<path d="M25.5327 17.6376H21.0031V15.6632C20.9662 13.9962 20.2688 12.4097 19.0603 11.2436C17.8517 10.0775 16.2281 9.42451 14.5372 9.42451C12.8464 9.42451 11.2228 10.0775 10.0142 11.2436C8.80563 12.4097 8.10822 13.9962 8.07138 15.6632V17.6376H3.54175V15.6632C3.58995 12.8188 4.7696 10.1071 6.82641 8.11244C8.88322 6.1178 11.6525 5 14.5372 5C17.422 5 20.1913 6.1178 22.2481 8.11244C24.3049 10.1071 25.4845 12.8188 25.5327 15.6632V17.6376Z" fill="#016AA6"/>
</svg>
