<svg width="46" height="46" viewBox="0 0 46 46" fill="none" xmlns="http://www.w3.org/2000/svg">
<path d="M22.5 5C11.1781 5 2 13.0571 2 23C2 26.3943 3.08357 29.5709 4.952 32.2811L2 39.8583L10.219 37.3897C13.6455 39.6457 17.8875 41 22.5 41C33.8219 41 43 32.9429 43 23C43 13.0571 33.8219 5 22.5 5Z" fill="#016AA6"/>
<path d="M20.8556 25.6971C20.8556 25.0885 20.9447 24.5537 21.123 24.0927C21.3191 23.6132 21.5597 23.189 21.8449 22.8202C22.1301 22.4514 22.4332 22.1194 22.754 21.8243C23.0927 21.5108 23.4046 21.2158 23.6898 20.9391C23.975 20.6441 24.2068 20.349 24.385 20.0539C24.5811 19.7589 24.6791 19.4361 24.6791 19.0858C24.6791 18.5325 24.4563 18.0991 24.0107 17.7856C23.5829 17.4721 23.0214 17.3154 22.3262 17.3154C21.6132 17.3154 20.9626 17.4905 20.3743 17.8409C19.8039 18.1913 19.3405 18.68 18.984 19.3071L15 17.0941C15.6952 15.8585 16.7023 14.8718 18.0214 14.1342C19.3405 13.3781 20.9804 13 22.9412 13C24.3137 13 25.5258 13.2029 26.5775 13.6086C27.6471 13.9959 28.4848 14.5768 29.0909 15.3513C29.697 16.1259 30 17.0756 30 18.2006C30 18.9198 29.893 19.5468 29.6791 20.0816C29.4652 20.6164 29.1889 21.0867 28.8503 21.4924C28.5294 21.8981 28.1818 22.2762 27.8075 22.6266C27.4332 22.9585 27.0766 23.2812 26.738 23.5947C26.4171 23.9083 26.1497 24.231 25.9358 24.5629C25.7219 24.8949 25.615 25.2729 25.615 25.6971H20.8556ZM23.2353 33C22.3619 33 21.6399 32.7142 21.0695 32.1425C20.4991 31.5708 20.2139 30.8884 20.2139 30.0954C20.2139 29.284 20.4991 28.6109 21.0695 28.0761C21.6399 27.5228 22.3619 27.2462 23.2353 27.2462C24.1444 27.2462 24.8752 27.5228 25.4278 28.0761C25.9982 28.6109 26.2834 29.284 26.2834 30.0954C26.2834 30.8884 25.9982 31.5708 25.4278 32.1425C24.8752 32.7142 24.1444 33 23.2353 33Z" fill="white"/>
</svg>
