<svg width="46" height="46" viewBox="0 0 46 46" fill="none" xmlns="http://www.w3.org/2000/svg">
<path fill-rule="evenodd" clip-rule="evenodd" d="M41.7444 19.3703L39.6444 22.9999L41.7425 26.6294C41.8678 26.8457 41.9492 27.0846 41.9821 27.3324C42.015 27.5801 41.9988 27.832 41.9343 28.0735C41.8698 28.315 41.7584 28.5414 41.6063 28.7398C41.4543 28.9382 41.2647 29.1047 41.0482 29.2298L37.415 31.3299V35.513C37.415 36.0175 37.2146 36.5014 36.8579 36.8581C36.5011 37.2149 36.0173 37.4153 35.5128 37.4153H31.3298L29.2317 41.0486C28.9788 41.4848 28.5631 41.8029 28.076 41.933C27.5889 42.0632 27.0701 41.9948 26.6333 41.743L23 39.6428L19.3706 41.743C19.0777 41.9123 18.7486 41.9998 18.4176 41.9998C18.0841 41.9979 17.7568 41.9091 17.468 41.7424C17.1791 41.5756 16.9387 41.3365 16.7703 41.0486L14.6703 37.4153H10.4854C9.98089 37.4153 9.49705 37.2149 9.14032 36.8581C8.78358 36.5014 8.58317 36.0175 8.58317 35.513V31.3299L4.94995 29.2298C4.51473 28.9755 4.19771 28.5594 4.068 28.0723C3.9383 27.5851 4.00643 27.0665 4.25754 26.6294L6.35758 22.9999L4.25754 19.3703C4.13176 19.1541 4.04994 18.9152 4.01677 18.6673C3.9836 18.4195 3.99974 18.1674 4.06426 17.9258C4.12877 17.6842 4.2404 17.4577 4.39272 17.2593C4.54504 17.0609 4.73506 16.8946 4.95185 16.7699L8.58507 14.6698V10.4867C8.58507 9.98219 8.78549 9.49834 9.14222 9.14159C9.49895 8.78484 9.98279 8.58443 10.4873 8.58443H14.6703L16.7703 4.95108C17.0226 4.51418 17.438 4.19538 17.9253 4.06482C18.4126 3.93425 18.9318 4.00261 19.3687 4.25485L23.0019 6.35686L26.6352 4.25675C26.8513 4.13109 27.0902 4.04956 27.338 4.01691C27.5858 3.98425 27.8377 4.00112 28.0789 4.06653C28.5654 4.19875 28.9802 4.51721 29.2336 4.95299L31.3317 8.58443H35.5147C36.0192 8.58443 36.503 8.78484 36.8598 9.14159C37.2165 9.49834 37.4169 9.98219 37.4169 10.4867V14.6717L41.0501 16.7718C41.4867 17.0244 41.8051 17.44 41.9353 17.9273C42.0655 18.4146 41.9968 18.9336 41.7444 19.3703ZM25.8841 16.9603L17.5005 29.3884H20.4646L28.8482 16.9603H25.8841ZM17.0094 23.3164C17.5005 23.5768 18.0559 23.707 18.6756 23.707C19.2953 23.707 19.8507 23.5768 20.3418 23.3164C20.8329 23.0442 21.2188 22.6476 21.4994 22.1268C21.7917 21.606 21.9379 20.9787 21.9379 20.2449C21.9379 19.511 21.7917 18.8896 21.4994 18.3806C21.2188 17.8598 20.8329 17.4633 20.3418 17.1911C19.8507 16.9188 19.2953 16.7827 18.6756 16.7827C18.0559 16.7827 17.5005 16.9188 17.0094 17.1911C16.5183 17.4633 16.1266 17.8598 15.8343 18.3806C15.5536 18.8896 15.4133 19.511 15.4133 20.2449C15.4133 20.9787 15.5536 21.606 15.8343 22.1268C16.1266 22.6476 16.5183 23.0442 17.0094 23.3164ZM19.2018 21.4699C19.0498 21.683 18.8744 21.7895 18.6756 21.7895C18.4885 21.7895 18.3131 21.683 18.1494 21.4699C17.9857 21.245 17.9039 20.8367 17.9039 20.2449C17.9039 19.653 17.9857 19.2506 18.1494 19.0375C18.3131 18.8127 18.4885 18.7002 18.6756 18.7002C18.8744 18.7002 19.0498 18.8127 19.2018 19.0375C19.3655 19.2506 19.4473 19.653 19.4473 20.2449C19.4473 20.8367 19.3655 21.245 19.2018 21.4699ZM26.0069 29.1754C26.498 29.4358 27.0534 29.566 27.6731 29.566C28.2928 29.566 28.8482 29.4358 29.3393 29.1754C29.8304 28.9032 30.2163 28.5066 30.4969 27.9858C30.7892 27.465 30.9354 26.8377 30.9354 26.1039C30.9354 25.37 30.7892 24.7486 30.4969 24.2396C30.2163 23.7188 29.8304 23.3223 29.3393 23.0501C28.8482 22.7778 28.2928 22.6417 27.6731 22.6417C27.0534 22.6417 26.498 22.7778 26.0069 23.0501C25.5158 23.3223 25.1241 23.7188 24.8318 24.2396C24.5512 24.7486 24.4109 25.37 24.4109 26.1039C24.4109 26.8377 24.5512 27.465 24.8318 27.9858C25.1241 28.5066 25.5158 28.9032 26.0069 29.1754ZM28.1993 27.3289C28.0473 27.542 27.8719 27.6485 27.6731 27.6485C27.486 27.6485 27.3106 27.542 27.147 27.3289C26.9833 27.104 26.9014 26.6957 26.9014 26.1039C26.9014 25.512 26.9833 25.1096 27.147 24.8965C27.3106 24.6717 27.486 24.5592 27.6731 24.5592C27.8719 24.5592 28.0473 24.6717 28.1993 24.8965C28.363 25.1096 28.4448 25.512 28.4448 26.1039C28.4448 26.6957 28.363 27.104 28.1993 27.3289Z" fill="#016AA6"/>
</svg>
