<svg width="60" height="60" viewBox="0 0 60 60" fill="none" xmlns="http://www.w3.org/2000/svg">
<path d="M24.3124 44.0852C20.3251 44.0852 17.0813 47.35 17.0813 51.363C17.0813 55.376 20.3251 58.6408 24.3124 58.6408C28.2997 58.6408 31.5435 55.376 31.5435 51.363C31.5435 47.35 28.2995 44.0852 24.3124 44.0852ZM24.3124 54.2741C22.7172 54.2741 21.42 52.9685 21.42 51.363C21.42 49.7575 22.7172 48.4519 24.3124 48.4519C25.9068 48.4519 27.2048 49.7575 27.2048 51.363C27.2048 52.9684 25.9076 54.2741 24.3124 54.2741Z" fill="#0069AF"/>
<path d="M45.7162 44.0852C41.729 44.0852 38.4851 47.35 38.4851 51.363C38.4851 55.376 41.729 58.6408 45.7162 58.6408C49.7035 58.6408 52.9473 55.376 52.9473 51.363C52.9473 47.35 49.7035 44.0852 45.7162 44.0852ZM45.7162 54.2741C44.121 54.2741 42.8238 52.9685 42.8238 51.363C42.8238 49.7575 44.121 48.4519 45.7162 48.4519C47.3114 48.4519 48.6086 49.7575 48.6086 51.363C48.6086 52.9684 47.3114 54.2741 45.7162 54.2741Z" fill="#0069AF"/>
<path d="M58.2606 15.2158C57.8484 14.6947 57.2237 14.3913 56.5627 14.3913H18.578L16.6061 4.36107C16.4333 3.48262 15.7449 2.79926 14.8692 2.63771L6.19191 1.03661C5.01115 0.817531 3.88307 1.60435 3.66685 2.79059C3.45063 3.97684 4.23083 5.11434 5.40958 5.33195L12.6363 6.66523L19.0025 39.0505C19.2035 40.0731 20.0952 40.8103 21.1306 40.8103H51.5011C52.5113 40.8103 53.387 40.1094 53.6147 39.1174L58.6765 17.0659C58.8254 16.4174 58.6721 15.7362 58.2606 15.2158ZM49.7757 36.4436H22.9123L19.4363 18.7587H53.8344L49.7757 36.4436Z" fill="#0069AF"/>
</svg>
