<svg width="46" height="46" viewBox="0 0 46 46" fill="none" xmlns="http://www.w3.org/2000/svg">
<path d="M23.4524 4C26.0319 4 28.5058 5.00089 30.3298 6.78249C32.1538 8.56408 33.1786 10.9804 33.1786 13.5C33.1786 16.0196 32.1538 18.4359 30.3298 20.2175C28.5058 21.9991 26.0319 23 23.4524 23C20.8728 23 18.3989 21.9991 16.5749 20.2175C14.7509 18.4359 13.7262 16.0196 13.7262 13.5C13.7262 10.9804 14.7509 8.56408 16.5749 6.78249C18.3989 5.00089 20.8728 4 23.4524 4ZM23.4524 27.75C34.1998 27.75 42.9048 32.0012 42.9048 37.25V42H4V37.25C4 32.0012 12.7049 27.75 23.4524 27.75Z" fill="#016AA6"/>
</svg>
